<svg width="67" height="19" viewBox="0 0 67 19" fill="none" xmlns="http://www.w3.org/2000/svg">
<path d="M9.456 18.168C7.872 18.168 6.416 17.8 5.088 17.064C3.776 16.328 2.728 15.304 1.944 13.992C1.176 12.664 0.792 11.176 0.792 9.528C0.792 7.88 1.176 6.4 1.944 5.088C2.728 3.776 3.776 2.752 5.088 2.016C6.416 1.28 7.872 0.912 9.456 0.912C11.04 0.912 12.488 1.28 13.8 2.016C15.128 2.752 16.168 3.776 16.92 5.088C17.688 6.4 18.072 7.88 18.072 9.528C18.072 11.176 17.688 12.664 16.92 13.992C16.152 15.304 15.112 16.328 13.8 17.064C12.488 17.8 11.04 18.168 9.456 18.168ZM9.456 14.424C10.8 14.424 11.872 13.976 12.672 13.08C13.488 12.184 13.896 11 13.896 9.528C13.896 8.04 13.488 6.856 12.672 5.976C11.872 5.08 10.8 4.632 9.456 4.632C8.096 4.632 7.008 5.072 6.192 5.952C5.392 6.832 4.992 8.024 4.992 9.528C4.992 11.016 5.392 12.208 6.192 13.104C7.008 13.984 8.096 14.424 9.456 14.424ZM26.6672 1.152C28.4432 1.152 29.9952 1.504 31.3232 2.208C32.6512 2.912 33.6752 3.904 34.3952 5.184C35.1312 6.448 35.4992 7.912 35.4992 9.576C35.4992 11.224 35.1312 12.688 34.3952 13.968C33.6752 15.248 32.6432 16.24 31.2992 16.944C29.9712 17.648 28.4272 18 26.6672 18H20.3552V1.152H26.6672ZM26.4032 14.448C27.9552 14.448 29.1632 14.024 30.0272 13.176C30.8912 12.328 31.3232 11.128 31.3232 9.576C31.3232 8.024 30.8912 6.816 30.0272 5.952C29.1632 5.088 27.9552 4.656 26.4032 4.656H24.4592V14.448H26.4032ZM41.8967 1.152V18H37.7927V1.152H41.8967ZM59.9428 18H55.8388L48.9748 7.608V18H44.8708V1.152H48.9748L55.8388 11.592V1.152H59.9428V18Z" fill="#24AB70"/>
<path d="M64.5737 18.168C63.9657 18.168 63.4617 17.984 63.0617 17.616C62.6777 17.232 62.4857 16.76 62.4857 16.2C62.4857 15.64 62.6777 15.176 63.0617 14.808C63.4617 14.424 63.9657 14.232 64.5737 14.232C65.1657 14.232 65.6537 14.424 66.0377 14.808C66.4217 15.176 66.6137 15.64 66.6137 16.2C66.6137 16.76 66.4217 17.232 66.0377 17.616C65.6537 17.984 65.1657 18.168 64.5737 18.168Z" fill="#222222"/>
</svg>
