<svg width="40" height="40" viewBox="0 0 40 40" fill="none" xmlns="http://www.w3.org/2000/svg">
<path d="M37.5216 4.88483H12.2324C10.8657 4.88483 9.75385 5.99663 9.75385 7.36335V9.56898L7.35705 7.1721L3.29649 11.2327L5.13962 13.0758L0 21.1488L5.21907 29.3066H3.24837C1.71875 29.3066 0.474376 30.551 0.474376 32.0806V35.115H14.3029V32.0806C14.3029 30.551 13.0585 29.3066 11.5289 29.3066H8.03877L2.81766 21.1457L6.26118 15.7367C6.1454 17.4188 6.72736 19.1404 8.01041 20.4235L8.99603 21.4092L9.75385 20.6513V25.9333C9.75385 27.3 10.8656 28.4117 12.2324 28.4117H19.3209L18.9021 32.74H16.9418V35.1151H18.6722H31.0815H32.8119V32.74H30.8517L30.4329 28.4117H37.5214C38.888 28.4117 39.9999 27.3 39.9999 25.9333V7.36343C40.0001 5.9967 38.8882 4.88483 37.5216 4.88483ZM11.5289 31.6818C11.7488 31.6818 11.9277 31.8607 11.9277 32.0806V32.7399H2.84954V32.0806C2.84954 31.8607 3.02844 31.6818 3.24837 31.6818H11.5289ZM8.28119 11.633C8.25955 11.6521 8.23775 11.6709 8.21634 11.6904C8.14775 11.7529 8.08017 11.8166 8.01423 11.8826C8.01298 11.8838 8.01173 11.8849 8.01041 11.8862C8.00908 11.8874 8.00806 11.8887 8.00681 11.89C7.94103 11.9559 7.87728 12.0234 7.81486 12.0919C7.79509 12.1137 7.77595 12.1358 7.75658 12.1577C7.729 12.1888 7.7008 12.2195 7.67392 12.2512L6.65556 11.2328L7.35705 10.5312L8.37541 11.5496C8.34345 11.5766 8.31252 11.6051 8.28119 11.633ZM9.09103 17.9556C8.50134 16.912 8.4647 15.6387 8.97986 14.5662C8.98345 14.5588 8.98705 14.5513 8.99064 14.544C9.00869 14.507 9.02744 14.4703 9.04681 14.4338C9.05197 14.424 9.05736 14.4144 9.06267 14.4047C9.08135 14.3702 9.10049 14.3359 9.12049 14.3021C9.12713 14.2908 9.134 14.2796 9.1408 14.2683C9.1601 14.2361 9.17978 14.204 9.20017 14.1723C9.20846 14.1595 9.21713 14.1469 9.22556 14.1341C9.24525 14.1043 9.26517 14.0745 9.28588 14.0452C9.29642 14.0304 9.30752 14.0157 9.31822 14.001C9.33775 13.9741 9.35728 13.9473 9.3776 13.9209C9.3915 13.9028 9.40611 13.8852 9.42041 13.8674C9.43861 13.8447 9.4565 13.8218 9.47533 13.7995C9.49517 13.7758 9.51596 13.7528 9.5365 13.7296C9.5508 13.7134 9.56471 13.697 9.57932 13.681C9.61525 13.6418 9.65205 13.6034 9.68986 13.5655C9.73197 13.5234 9.77502 13.4827 9.81877 13.443C9.83135 13.4316 9.84432 13.4207 9.85705 13.4094C9.88892 13.3812 9.92111 13.3532 9.95377 13.3264C9.96783 13.3148 9.98228 13.3036 9.9965 13.2922C10.0292 13.2662 10.062 13.2405 10.0953 13.2157C10.1088 13.2055 10.1226 13.1957 10.1363 13.1858C10.1719 13.1601 10.2078 13.135 10.2441 13.1107C10.2557 13.1029 10.2674 13.0951 10.2792 13.0874C10.3198 13.0609 10.3609 13.0353 10.4023 13.0105C10.41 13.0059 10.4178 13.0011 10.4255 12.9966C10.7314 12.8171 11.0579 12.6859 11.3941 12.6027C11.3995 12.6013 11.4049 12.5998 11.4103 12.5984C11.4631 12.5856 11.5162 12.5741 11.5695 12.5637C11.5739 12.5628 11.5783 12.5618 11.5828 12.5609C11.6372 12.5504 11.6917 12.5413 11.7465 12.5333C11.7497 12.5328 11.7529 12.5323 11.7561 12.5318C11.8114 12.5239 11.8671 12.5173 11.9226 12.5119C11.9253 12.5116 11.9281 12.5113 11.9308 12.511C11.9862 12.5058 12.0417 12.5018 12.0972 12.4991C12.1006 12.499 12.1039 12.4987 12.1074 12.4986C12.1614 12.4961 12.2156 12.4948 12.2697 12.4947C12.2747 12.4947 12.2797 12.4946 12.2848 12.4946C12.4378 12.4948 12.5906 12.5045 12.7426 12.5237C12.746 12.5241 12.7492 12.5247 12.7526 12.5251C12.8186 12.5336 12.8844 12.5445 12.9499 12.5566C12.9692 12.5602 12.9884 12.564 13.0076 12.5679C13.0583 12.5781 13.1087 12.5897 13.159 12.602C13.1813 12.6076 13.2037 12.6127 13.2258 12.6186C13.2855 12.6345 13.3449 12.652 13.4039 12.6709C13.4348 12.6809 13.4653 12.692 13.496 12.7027C13.5349 12.7163 13.5735 12.7302 13.612 12.7451C13.6454 12.7581 13.6785 12.772 13.7117 12.786C13.7424 12.7991 13.773 12.8127 13.8035 12.8265C13.8375 12.842 13.8715 12.8575 13.9049 12.8741C13.937 12.89 13.9686 12.907 14.0003 12.9238C14.0269 12.938 14.0538 12.9515 14.08 12.9662L11.5857 15.4606L9.09103 17.9556ZM21.2884 32.7399L21.7072 28.4117H28.0469L28.4656 32.7399H21.2884ZM37.6249 25.9332C37.6249 25.9902 37.5785 26.0366 37.5216 26.0366H30.2033H19.5507H12.2324C12.1753 26.0366 12.129 25.9903 12.129 25.9332V23.7216H37.625V25.9332H37.6249ZM37.6249 21.3464H12.129V18.2761L17.5334 12.8717L16.5477 11.8861C15.9479 11.2863 15.252 10.8402 14.5093 10.5461C14.5029 10.5436 14.4964 10.5413 14.4899 10.5388C14.4057 10.5057 14.3207 10.4743 14.2353 10.4451C14.2103 10.4366 14.1848 10.4291 14.1597 10.4209C14.0933 10.3991 14.0268 10.3779 13.9597 10.3585C13.917 10.3462 13.8739 10.3352 13.8309 10.3238C13.7817 10.3109 13.7324 10.2975 13.683 10.2858C13.6245 10.2718 13.5657 10.2596 13.5067 10.2473C13.4728 10.2403 13.4392 10.2329 13.4052 10.2265C13.3335 10.2129 13.2614 10.2012 13.189 10.1901C13.168 10.1869 13.1472 10.1834 13.1262 10.1805C13.0439 10.1687 12.9614 10.1591 12.8785 10.1509C12.8676 10.1498 12.8567 10.1486 12.8459 10.1475C12.7557 10.139 12.6653 10.1326 12.5746 10.1281C12.5711 10.128 12.5677 10.1277 12.5642 10.1276C12.4193 10.1207 12.2742 10.117 12.1287 10.1206V7.36343C12.1287 7.30639 12.1751 7.26007 12.2321 7.26007H37.5213C37.5784 7.26007 37.6247 7.30647 37.6247 7.36343V21.3464H37.6249Z" fill="#24AB70"/>
</svg>
